<?xml version="1.0" encoding="UTF-8" standalone="no"?>
<!DOCTYPE svg PUBLIC "-//W3C//DTD SVG 1.1//EN"
 "http://www.w3.org/Graphics/SVG/1.1/DTD/svg11.dtd">
<!-- Generated by graphviz version 2.43.0 (0)
 -->
<!-- Title: %3 Pages: 1 -->
<svg width="442pt" height="883pt"
 viewBox="0.00 0.00 442.44 882.58" xmlns="http://www.w3.org/2000/svg" xmlns:xlink="http://www.w3.org/1999/xlink">
<g id="graph0" class="graph" transform="scale(1 1) rotate(0) translate(4 878.58)">
<title>%3</title>
<polygon fill="white" stroke="transparent" points="-4,4 -4,-878.58 438.44,-878.58 438.44,4 -4,4"/>
<!-- B -->
<g id="node1" class="node">
<title>B</title>
<polygon fill="aqua" stroke="black" points="173.67,-837.41 134.37,-837.41 122.22,-874.79 110.08,-837.41 70.78,-837.41 102.57,-814.31 90.43,-776.93 122.22,-800.03 154.02,-776.93 141.87,-814.31 173.67,-837.41"/>
<text text-anchor="middle" x="122.22" y="-822.16" font-family="Times,serif" font-size="14.00">B</text>
</g>
<!-- G -->
<g id="node2" class="node">
<title>G</title>
<polygon fill="aqua" stroke="black" points="421.67,-526.55 382.37,-526.55 370.22,-563.93 358.08,-526.55 318.78,-526.55 350.57,-503.45 338.43,-466.07 370.22,-489.17 402.02,-466.07 389.87,-503.45 421.67,-526.55"/>
<text text-anchor="middle" x="370.22" y="-511.3" font-family="Times,serif" font-size="14.00">G</text>
</g>
<!-- B&#45;&#45;G -->
<g id="edge1" class="edge">
<title>B&#45;&#45;G</title>
<path fill="none" stroke="red" d="M143.47,-815.33C176.02,-799.7 238.23,-765.67 274.22,-719.15 302.47,-682.64 290.76,-663.58 310.22,-621.72 325.43,-588.99 347.09,-552.82 359.8,-532.4"/>
<text text-anchor="middle" x="316.72" y="-665.43" font-family="Times,serif" font-size="20.00">4</text>
</g>
<!-- D -->
<g id="node3" class="node">
<title>D</title>
<polygon fill="aqua" stroke="black" points="215.67,-371.12 176.37,-371.12 164.22,-408.5 152.08,-371.12 112.78,-371.12 144.57,-348.02 132.43,-310.64 164.22,-333.75 196.02,-310.64 183.87,-348.02 215.67,-371.12"/>
<text text-anchor="middle" x="164.22" y="-355.87" font-family="Times,serif" font-size="14.00">D</text>
</g>
<!-- B&#45;&#45;D -->
<g id="edge2" class="edge">
<title>B&#45;&#45;D</title>
<path fill="none" stroke="red" d="M124.63,-798.23C131.73,-719.71 152.61,-488.94 160.83,-398.01"/>
<text text-anchor="middle" x="150.72" y="-587.72" font-family="Times,serif" font-size="20.00">9</text>
</g>
<!-- A -->
<g id="node4" class="node">
<title>A</title>
<polygon fill="aqua" stroke="black" points="102.67,-60.27 63.37,-60.27 51.22,-97.65 39.08,-60.27 -0.22,-60.27 31.57,-37.16 19.43,0.22 51.22,-22.89 83.02,0.22 70.87,-37.16 102.67,-60.27"/>
<text text-anchor="middle" x="51.22" y="-45.01" font-family="Times,serif" font-size="14.00">A</text>
</g>
<!-- B&#45;&#45;A -->
<g id="edge3" class="edge">
<title>B&#45;&#45;A</title>
<path fill="none" stroke="red" d="M98.22,-800.92C72.47,-772.58 35.22,-722.72 35.22,-671.43 35.22,-671.43 35.22,-671.43 35.22,-203.14 35.22,-160.83 41.32,-112.3 45.98,-81.35"/>
<text text-anchor="middle" x="41.72" y="-432.29" font-family="Times,serif" font-size="20.00">1</text>
</g>
<!-- H -->
<g id="node5" class="node">
<title>H</title>
<polygon fill="aqua" stroke="black" points="434.67,-681.98 395.37,-681.98 383.22,-719.36 371.08,-681.98 331.78,-681.98 363.57,-658.88 351.43,-621.5 383.22,-644.6 415.02,-621.5 402.87,-658.88 434.67,-681.98"/>
<text text-anchor="middle" x="383.22" y="-666.73" font-family="Times,serif" font-size="14.00">H</text>
</g>
<!-- B&#45;&#45;H -->
<g id="edge4" class="edge">
<title>B&#45;&#45;H</title>
<path fill="none" stroke="red" d="M150.44,-820.53C190.25,-813.32 263.79,-795.85 315.22,-759.15 341.1,-740.68 361.87,-709.58 373.36,-689.8"/>
<text text-anchor="middle" x="343.72" y="-743.15" font-family="Times,serif" font-size="20.00">2</text>
</g>
<!-- C -->
<g id="node6" class="node">
<title>C</title>
<polygon fill="aqua" stroke="black" points="165.67,-215.7 126.37,-215.7 114.22,-253.07 102.08,-215.7 62.78,-215.7 94.57,-192.59 82.43,-155.21 114.22,-178.32 146.02,-155.21 133.87,-192.59 165.67,-215.7"/>
<text text-anchor="middle" x="114.22" y="-200.44" font-family="Times,serif" font-size="14.00">C</text>
</g>
<!-- B&#45;&#45;C -->
<g id="edge5" class="edge">
<title>B&#45;&#45;C</title>
<path fill="none" stroke="red" d="M106.95,-789C95.3,-758.36 81.22,-712.79 81.22,-671.43 81.22,-671.43 81.22,-671.43 81.22,-358.57 81.22,-311.44 96.29,-257.94 106.06,-228.21"/>
<text text-anchor="middle" x="87.72" y="-510" font-family="Times,serif" font-size="20.00">2</text>
</g>
<!-- G&#45;&#45;D -->
<g id="edge9" class="edge">
<title>G&#45;&#45;D</title>
<path fill="none" stroke="red" d="M348.18,-496.09C336.92,-487.03 322.94,-475.94 310.22,-466.29 263.11,-430.53 205.98,-389.95 179.31,-371.16"/>
<text text-anchor="middle" x="288.72" y="-432.29" font-family="Times,serif" font-size="20.00">1</text>
</g>
<!-- D&#45;&#45;C -->
<g id="edge10" class="edge">
<title>D&#45;&#45;C</title>
<path fill="none" stroke="red" d="M153.62,-326.04C144.16,-297.01 130.53,-255.18 122.03,-229.11"/>
<text text-anchor="middle" x="148.72" y="-276.86" font-family="Times,serif" font-size="20.00">1</text>
</g>
<!-- H&#45;&#45;G -->
<g id="edge12" class="edge">
<title>H&#45;&#45;G</title>
<path fill="none" stroke="red" d="M380.99,-643.06C378.91,-618.55 375.8,-581.78 373.45,-554.09"/>
<text text-anchor="middle" x="390.22" y="-587.72" font-family="Times,serif" font-size="20.00">14</text>
</g>
<!-- C&#45;&#45;A -->
<g id="edge11" class="edge">
<title>C&#45;&#45;A</title>
<path fill="none" stroke="red" d="M99.61,-167.56C87.32,-137.64 70.17,-95.86 59.93,-70.93"/>
<text text-anchor="middle" x="93.72" y="-121.43" font-family="Times,serif" font-size="20.00">4</text>
</g>
<!-- F -->
<g id="node7" class="node">
<title>F</title>
<polygon fill="aqua" stroke="black" points="265.67,-681.98 226.37,-681.98 214.22,-719.36 202.08,-681.98 162.78,-681.98 194.57,-658.88 182.43,-621.5 214.22,-644.6 246.02,-621.5 233.87,-658.88 265.67,-681.98"/>
<text text-anchor="middle" x="214.22" y="-666.73" font-family="Times,serif" font-size="14.00">F</text>
</g>
<!-- F&#45;&#45;G -->
<g id="edge8" class="edge">
<title>F&#45;&#45;G</title>
<path fill="none" stroke="red" d="M235.86,-628.96C245.94,-612.8 259.07,-594.94 274.22,-581.72 287.7,-569.96 295.14,-573.34 310.22,-563.72 327.73,-552.55 346.18,-537.28 357.92,-527.05"/>
<text text-anchor="middle" x="280.72" y="-587.72" font-family="Times,serif" font-size="20.00">6</text>
</g>
<!-- F&#45;&#45;D -->
<g id="edge6" class="edge">
<title>F&#45;&#45;D</title>
<path fill="none" stroke="red" d="M198.87,-633.43C190.99,-613.3 182.06,-587.54 177.22,-563.72 166.43,-510.56 163.91,-448.11 163.61,-406.63"/>
<text text-anchor="middle" x="183.72" y="-510" font-family="Times,serif" font-size="20.00">3</text>
</g>
<!-- E -->
<g id="node8" class="node">
<title>E</title>
<polygon fill="aqua" stroke="black" points="301.67,-526.55 262.37,-526.55 250.22,-563.93 238.08,-526.55 198.78,-526.55 230.57,-503.45 218.43,-466.07 250.22,-489.17 282.02,-466.07 269.87,-503.45 301.67,-526.55"/>
<text text-anchor="middle" x="250.22" y="-511.3" font-family="Times,serif" font-size="14.00">E</text>
</g>
<!-- F&#45;&#45;E -->
<g id="edge7" class="edge">
<title>F&#45;&#45;E</title>
<path fill="none" stroke="red" d="M221.25,-639.49C227.76,-611.75 237.36,-570.84 243.7,-543.81"/>
<text text-anchor="middle" x="241.72" y="-587.72" font-family="Times,serif" font-size="20.00">1</text>
</g>
</g>
</svg>
