<?xml version="1.0" encoding="UTF-8" standalone="no"?>
<!DOCTYPE svg PUBLIC "-//W3C//DTD SVG 1.1//EN"
 "http://www.w3.org/Graphics/SVG/1.1/DTD/svg11.dtd">
<!-- Generated by graphviz version 2.43.0 (0)
 -->
<!-- Title: %3 Pages: 1 -->
<svg width="710pt" height="692pt"
 viewBox="0.00 0.00 710.00 692.00" xmlns="http://www.w3.org/2000/svg" xmlns:xlink="http://www.w3.org/1999/xlink">
<g id="graph0" class="graph" transform="scale(1 1) rotate(0) translate(4 688)">
<title>%3</title>
<polygon fill="white" stroke="transparent" points="-4,4 -4,-688 706,-688 706,4 -4,4"/>
<!-- A -->
<g id="node1" class="node">
<title>A</title>
<ellipse fill="none" stroke="black" cx="675" cy="-306" rx="27" ry="18"/>
<text text-anchor="middle" x="675" y="-302.3" font-family="Times,serif" font-size="14.00">A</text>
</g>
<!-- F -->
<g id="node2" class="node">
<title>F</title>
<ellipse fill="none" stroke="black" cx="27" cy="-162" rx="27" ry="18"/>
<text text-anchor="middle" x="27" y="-158.3" font-family="Times,serif" font-size="14.00">F</text>
</g>
<!-- E -->
<g id="node3" class="node">
<title>E</title>
<ellipse fill="none" stroke="black" cx="315" cy="-18" rx="27" ry="18"/>
<text text-anchor="middle" x="315" y="-14.3" font-family="Times,serif" font-size="14.00">E</text>
</g>
<!-- F&#45;&#45;E -->
<g id="edge7" class="edge">
<title>F&#45;&#45;E</title>
<path fill="none" stroke="purple" d="M48.65,-151.18C102.02,-124.49 239.47,-55.77 293.1,-28.95"/>
<text text-anchor="middle" x="164.37" y="-96.06" font-family="Times,serif" font-size="20.00">1</text>
</g>
<!-- D -->
<g id="node4" class="node">
<title>D</title>
<ellipse fill="none" stroke="black" cx="243" cy="-234" rx="27" ry="18"/>
<text text-anchor="middle" x="243" y="-230.3" font-family="Times,serif" font-size="14.00">D</text>
</g>
<!-- F&#45;&#45;D -->
<g id="edge6" class="edge">
<title>F&#45;&#45;D</title>
<path fill="none" stroke="purple" d="M51.36,-170.12C92.95,-183.98 177.2,-212.07 218.73,-225.91"/>
<text text-anchor="middle" x="128.54" y="-204.01" font-family="Times,serif" font-size="20.00">3</text>
</g>
<!-- G -->
<g id="node6" class="node">
<title>G</title>
<ellipse fill="none" stroke="black" cx="99" cy="-378" rx="27" ry="18"/>
<text text-anchor="middle" x="99" y="-374.3" font-family="Times,serif" font-size="14.00">G</text>
</g>
<!-- F&#45;&#45;G -->
<g id="edge8" class="edge">
<title>F&#45;&#45;G</title>
<path fill="none" stroke="purple" d="M32.89,-179.68C46.43,-220.28 79.61,-319.83 93.13,-360.38"/>
<text text-anchor="middle" x="56.51" y="-276.03" font-family="Times,serif" font-size="20.00">6</text>
</g>
<!-- E&#45;&#45;D -->
<g id="edge13" class="edge">
<title>E&#45;&#45;D</title>
<path fill="none" stroke="purple" d="M309.11,-35.68C295.57,-76.28 262.39,-175.83 248.87,-216.38"/>
<text text-anchor="middle" x="272.49" y="-132.03" font-family="Times,serif" font-size="20.00">1</text>
</g>
<!-- C -->
<g id="node5" class="node">
<title>C</title>
<ellipse fill="none" stroke="black" cx="459" cy="-234" rx="27" ry="18"/>
<text text-anchor="middle" x="459" y="-230.3" font-family="Times,serif" font-size="14.00">C</text>
</g>
<!-- E&#45;&#45;C -->
<g id="edge14" class="edge">
<title>E&#45;&#45;C</title>
<path fill="none" stroke="purple" d="M326.06,-34.59C352.86,-74.8 421.06,-177.09 447.9,-217.35"/>
<text text-anchor="middle" x="380.48" y="-131.97" font-family="Times,serif" font-size="20.00">3</text>
</g>
<!-- D&#45;&#45;C -->
<g id="edge10" class="edge">
<title>D&#45;&#45;C</title>
<path fill="none" stroke="purple" d="M270.36,-234C311.91,-234 390.45,-234 431.87,-234"/>
<text text-anchor="middle" x="344.61" y="-240" font-family="Times,serif" font-size="20.00">1</text>
</g>
<!-- C&#45;&#45;A -->
<g id="edge11" class="edge">
<title>C&#45;&#45;A</title>
<path fill="none" stroke="purple" d="M483.36,-242.12C524.95,-255.98 609.2,-284.07 650.73,-297.91"/>
<text text-anchor="middle" x="560.54" y="-276.01" font-family="Times,serif" font-size="20.00">4</text>
</g>
<!-- G&#45;&#45;D -->
<g id="edge9" class="edge">
<title>G&#45;&#45;D</title>
<path fill="none" stroke="purple" d="M114.14,-362.86C141.72,-335.28 199.88,-277.12 227.63,-249.37"/>
<text text-anchor="middle" x="164.38" y="-312.12" font-family="Times,serif" font-size="20.00">1</text>
</g>
<!-- H -->
<g id="node7" class="node">
<title>H</title>
<ellipse fill="none" stroke="black" cx="243" cy="-666" rx="27" ry="18"/>
<text text-anchor="middle" x="243" y="-662.3" font-family="Times,serif" font-size="14.00">H</text>
</g>
<!-- H&#45;&#45;G -->
<g id="edge12" class="edge">
<title>H&#45;&#45;G</title>
<path fill="none" stroke="purple" d="M234.42,-648.85C208.87,-597.74 133.44,-446.88 107.71,-395.43"/>
<text text-anchor="middle" x="158.07" y="-528.14" font-family="Times,serif" font-size="20.00">14</text>
</g>
<!-- B -->
<g id="node8" class="node">
<title>B</title>
<ellipse fill="none" stroke="black" cx="459" cy="-594" rx="27" ry="18"/>
<text text-anchor="middle" x="459" y="-590.3" font-family="Times,serif" font-size="14.00">B</text>
</g>
<!-- B&#45;&#45;A -->
<g id="edge3" class="edge">
<title>B&#45;&#45;A</title>
<path fill="none" stroke="purple" d="M471.23,-577.69C509.25,-527 625.07,-372.58 662.9,-322.13"/>
<text text-anchor="middle" x="560.57" y="-455.91" font-family="Times,serif" font-size="20.00">1</text>
</g>
<!-- B&#45;&#45;D -->
<g id="edge2" class="edge">
<title>B&#45;&#45;D</title>
<path fill="none" stroke="purple" d="M448.87,-577.12C412.59,-516.65 289.35,-311.26 253.11,-250.84"/>
<text text-anchor="middle" x="344.49" y="-419.98" font-family="Times,serif" font-size="20.00">9</text>
</g>
<!-- B&#45;&#45;C -->
<g id="edge5" class="edge">
<title>B&#45;&#45;C</title>
<path fill="none" stroke="purple" d="M459,-575.65C459,-513.9 459,-314.01 459,-252.31"/>
<text text-anchor="middle" x="452.5" y="-419.98" font-family="Times,serif" font-size="20.00">2</text>
</g>
<!-- B&#45;&#45;G -->
<g id="edge1" class="edge">
<title>B&#45;&#45;G</title>
<path fill="none" stroke="purple" d="M438.87,-581.92C375.79,-544.08 182.4,-428.04 119.21,-390.12"/>
<text text-anchor="middle" x="272.54" y="-492.02" font-family="Times,serif" font-size="20.00">4</text>
</g>
<!-- B&#45;&#45;H -->
<g id="edge4" class="edge">
<title>B&#45;&#45;H</title>
<path fill="none" stroke="purple" d="M434.64,-602.12C393.05,-615.98 308.8,-644.07 267.27,-657.91"/>
<text text-anchor="middle" x="344.46" y="-636.01" font-family="Times,serif" font-size="20.00">2</text>
</g>
</g>
</svg>
